<?xml version="1.0" encoding="utf-8"?>
<svg version="1.1" xmlns="http://www.w3.org/2000/svg" xmlns:xlink="http://www.w3.org/1999/xlink"
	 viewBox="370 670 1180 290" xml:space="preserve">
<style type="text/css">
	.st1{fill:#1590CA;}
	.st2{fill:#FCB429;}
	.st3{fill:#E85733;}
	.st4{fill:#C8D32C;}
	.st5{fill:#F36D38;}
	.st6{fill:#F9EC1A;}
	.st7{fill:#1FBDD8;}
	.st8{fill:#D8E13A;}
	.st9{fill:#FFFFFF;}
</style>
<g>
	<g>
		<path class="st9" d="M1530,863.1c-0.6,0.5-1.3,0.9-1.8,1.5c-4.7,5.2-9.9,9.8-16.4,12.6c-7,3.1-14.4,4.3-22.1,3.7
			c-7.3-0.6-14.5-1.9-21.2-4.7c-19.4-8.3-31.1-23-34.9-43.7c-2-10.7-1.5-21.4,2.2-31.8c2.6-7.1,6.4-13.4,11.5-19.1
			c9.1-10.1,20.2-16.4,33.5-18.8c11.6-2.1,23-1.6,33.8,3.9c5.1,2.6,9.4,6.3,13.2,10.5c0.6,0.6,1.3,1.2,1.9,1.8
			c0.2-0.1,0.4-0.2,0.6-0.2c0-24,0-48,0-72.2c3.6,0,6.7,0,10.1,0c0,57,0,113.9,0,170.9c-3.2,0-6.2,0-9.6,0c0-4.8,0-9.4,0-14
			C1530.5,863.3,1530.2,863.2,1530,863.1z M1530.3,821.3c0-8.2,0-16.4,0-24.6c0-1.2-0.1-2.4-0.3-3.5c-0.7-4-3.3-6.5-6.2-9
			c-11-9.3-23.4-13.9-37.9-11.6c-12.1,1.9-22.8,6.7-31,16c-10.1,11.5-13.2,25.2-11.4,40c1.5,12.1,7.1,22.3,16.5,30.2
			c8.9,7.5,19.3,11.4,30.9,11.7c12.4,0.3,23.3-3.8,32.8-11.7c4.4-3.7,6.8-8.1,6.6-14C1530.1,836.9,1530.3,829.1,1530.3,821.3z"/>
		<path class="st9" d="M990,778.7c0-4.2,0-8.3,0-12.7c3.4,0,6.5,0,9.8,0c0,37.3,0,74.4,0,111.8c-3.2,0-6.2,0-9.7,0
			c0-4.9,0-9.6,0-14.3c-0.2-0.1-0.5-0.2-0.7-0.3c-0.9,0.9-1.8,1.7-2.6,2.6c-7.5,8.4-16.6,13.9-28,14.9c-17.2,1.5-32.8-2.8-46.1-13.9
			c-10.8-9-17.3-20.9-19.6-34.8c-3-18.1,0.8-34.8,12.6-49.1c10.3-12.4,23.7-19.3,39.9-20.9c7.5-0.7,14.8-0.4,22,1.8
			c6.7,2.1,12.6,5.6,17.4,10.7c1.4,1.5,2.7,3,4.1,4.5C989.4,779,989.7,778.8,990,778.7z M990,821.2C990,821.2,990,821.2,990,821.2
			c0-8.7,0-17.5,0-26.2c0-2.7-0.7-5.2-2.5-7.3c-10.6-11.5-23.8-16.3-39.2-15.3c-12.5,0.8-23.1,5.6-31.7,14.7
			c-10.8,11.4-14.9,25.1-13.3,40.5c1.2,11.5,6.3,21.3,14.7,29.2c11.6,10.9,25.5,15,41.1,12.9c9.6-1.3,18-5.3,25.3-11.8
			c3.7-3.3,5.7-7.1,5.7-12.2C989.9,837.6,990,829.4,990,821.2z"/>
		<path class="st9" d="M1194.6,761.7c33.2,0,60,25.6,59.9,59.1c-0.1,33.8-26,60.1-59.3,60.1c-34.4,0-60.1-26-60.1-59.8
			C1135.1,787,1161.9,761.6,1194.6,761.7z M1145.7,821.3c-0.5,26.7,21.5,48.7,48.5,49.1c27.7,0.4,49.6-22.8,49.6-49.4
			c0-26.1-21.2-48.9-49.5-48.9C1166.4,772.2,1145.3,795.2,1145.7,821.3z"/>
		<path class="st9" d="M1288.4,791.1c3.1-3.8,5.7-7.6,8.9-10.8c9.5-9.4,20.6-16,34-17.9c13.9-2,26.3,0.9,36.3,11.2
			c6.6,6.8,10.1,14.9,10.2,24.5c0.1,25.1,0.3,50.1,0.4,75.2c0,1.5-0.3,2.9-0.5,4.7c-2.2,0.2-4,0.5-5.9,0.4c-2.9-0.1-3.8-1.2-3.9-4.1
			c-0.1-5.6,0-11.2,0-16.7c-0.1-12.6-0.3-25.2-0.3-37.8c0-5.8,0.5-11.7,0.3-17.5c-0.2-8.5-3.1-16.1-9.4-22
			c-4.8-4.5-10.5-7.3-17.1-7.6c-20.8-1.2-36.5,7.4-47,25.2c-3.6,6.1-5.5,12.9-5.6,20.1c-0.2,19-0.3,37.9-0.4,56.9
			c0,1-0.1,1.9-0.1,3.1c-3.3,0-6.4,0-9.8,0c-0.1-1.2-0.3-2.4-0.4-3.6c0-15.7,0-31.5,0-47.2c0-18.4,0-36.7,0-55.1
			c0-1.3,0.2-2.8,0.7-4c1-2.4,3.6-3.4,6.3-2.7c2.2,0.5,3.2,1.9,3.3,4.7c0.1,6.4,0,12.7,0,19.1
			C1288.4,789.5,1288.4,790.2,1288.4,791.1z"/>
		<path class="st9" d="M1053.9,924.2c-3.3-1.5-6.2-2.8-9.4-4.2c0.9-2.1,1.6-4.1,2.5-6c6-13,12.1-25.9,18.2-38.8
			c1.5-3.2,1.6-6.2,0.1-9.4c-7.1-15-14.2-30-21.2-45.1c-8.1-17.4-16.2-34.9-24.2-52.3c-0.3-0.6-0.4-1.2-0.8-2.1
			c3-1.5,5.9-2.9,9.2-4.6c15,32,29.8,63.7,44.9,96c15.1-32.2,29.9-63.8,44.9-95.8c3.2,1.5,6.3,2.9,9.6,4.4
			C1103.1,818.9,1078.6,871.4,1053.9,924.2z"/>
		<path class="st9" d="M803.6,780.2c-2.5,2.2-5,4.4-7.6,6.6c-10.7-10.1-23.1-15.5-37.6-14.6c-14.4,0.8-26.5,6.6-35.6,18
			c-14.7,18.3-14.6,44.6,0.2,62.4c9.3,11.2,21.6,17.1,36,17.7c14.5,0.7,26.9-4.9,37.7-14.8c2.1,2.6,4.1,5.1,6.4,7.9
			c-1.2,1.2-3.1,3.3-5.3,5.1c-8.6,7.2-18.6,10.8-29.7,12c-13.8,1.4-26.7-1.2-38.6-8.3c-13.1-7.7-21.8-19.1-25.8-33.7
			c-5.2-19.5-2.5-37.8,10-54.1c10-13.1,23.6-20.4,40-22.2c14-1.6,27,1.3,39.1,8.7C796.8,773.2,800.5,776.2,803.6,780.2z"/>
		<path class="st9" d="M835.8,877.8c-2.6,0.2-5.1,0.4-7.5,0.4c-1.7,0-2.5-1.3-2.6-3c-0.1-1.2-0.1-2.4-0.1-3.5c0-31.6,0-63.2,0-94.9
			c0-2.6-0.1-5.2,0-7.8c0.2-2.3,1.4-3.4,3.7-3.6c0.5-0.1,1-0.1,1.6-0.1c3.7,0,5,1.3,5,4.9c0,5.6,0,11.3,0,16.9
			c0,0.9,0.2,1.9,0.5,2.9c11.7-17.3,28.3-26.1,48.8-28.7c0,3.5,0,6.7,0,10.2c-2.6,0.4-5.2,0.8-7.8,1.3c-16.2,3-28.5,11.2-36.1,26
			c-3.7,7.3-5.5,15.2-5.5,23.3c-0.1,17.4,0,34.8,0,52.1C836,875.3,835.9,876.2,835.8,877.8z"/>
		<path class="st9" d="M1408.7,751.6c-2.4-0.8-4.4-1.4-6.4-2.1c-0.7-0.2-1.3-0.5-2.4-0.9c4.5-14.8,8.9-29.5,13.4-44.3
			c4.7,0.4,8.5,2.5,12.9,3.9C1420.3,722.8,1414.5,737.1,1408.7,751.6z"/>
	</g>
	<g>
		<path class="st1" d="M639.5,874.1c-1.1,2.2-2.2,4.4-3.4,6.5c-23.5,42-68.7,71.3-119.8,70.6c-14.4,0.1-28.4-2.1-41.6-6.3
			c-6.5-2-12.7-4.6-18.8-7.6c-1.4-0.7-2.9-1.5-4.3-2.2v-61H639.5z"/>
		<path class="st2" d="M577.4,692.2v62.8H393.3c1.2-2.5,2.5-4.9,3.8-7.3c23.4-41.7,68.2-70.2,120.8-69.8c13.6,0.1,26.7,2.2,39.1,6.1
			c6.2,1.9,12.2,4.3,18,7C575.8,691.4,576.6,691.8,577.4,692.2z"/>
		<path class="st3" d="M653.3,817.3c-0.2,13.3-2.4,26.2-6.4,38.4c-2,6.3-4.5,12.5-7.4,18.4H575v-183c0.8,0.4,1.6,0.8,2.4,1.2
			c1.9,0.9,3.7,1.9,5.6,2.9C625.3,718.9,654.1,764.7,653.3,817.3z"/>
		<path class="st4" d="M456,755.1v182.3c-1.4-0.7-2.9-1.5-4.3-2.2c-1.4-0.8-2.9-1.6-4.3-2.4c-40.6-23.8-68.4-68.3-67.8-119.9
			c0.2-12.6,2-24.9,5.4-36.5c2.2-7.4,4.9-14.5,8.2-21.3H456z"/>
		<path class="st5" d="M653.3,817.3c-0.2,13.3-2.4,26.2-6.4,38.4l-64-160.5C625.3,718.9,654.1,764.7,653.3,817.3z"/>
		<path class="st6" d="M517.9,678c13.6,0.1,26.7,2.2,39.1,6.1l-159.9,63.7C420.5,706,465.3,677.6,517.9,678z"/>
		<path class="st7" d="M474.8,944.9l161.3-64.3c-23.5,42-68.7,71.3-119.8,70.6C501.9,951.3,487.9,949.1,474.8,944.9z"/>
		<path class="st8" d="M447.4,932.7c-40.6-23.8-68.4-68.3-67.8-119.9c0.2-12.6,2-24.9,5.4-36.5L447.4,932.7z"/>
	</g>
</g>
</svg>
