<?xml version="1.0" encoding="utf-8"?>
<!-- Crayon'd Icon — Circle mark only, cropped from crayond-logo.svg -->
<svg xmlns="http://www.w3.org/2000/svg" viewBox="379 121 274 274" width="80" height="80">
  <path fill="#1590CA" d="M639.5,317.6c-1.1,2.2-2.2,4.4-3.4,6.5c-23.5,42-68.7,71.3-119.8,70.6c-14.4,0.1-28.4-2.1-41.6-6.3c-6.5-2-12.7-4.6-18.8-7.6c-1.4-0.7-2.9-1.5-4.3-2.2v-61H639.5z"/>
  <path fill="#FCB429" d="M577.4,135.8v62.8H393.3c1.2-2.5,2.5-4.9,3.8-7.3c23.4-41.7,68.2-70.2,120.8-69.8c13.6,0.1,26.7,2.2,39.1,6.1c6.2,1.9,12.2,4.3,18,7C575.8,135,576.6,135.4,577.4,135.8z"/>
  <path fill="#E85733" d="M653.3,260.8c-0.2,13.3-2.4,26.2-6.4,38.4c-2,6.3-4.5,12.5-7.4,18.4H575v-183c0.8,0.4,1.6,0.8,2.4,1.2c1.9,0.9,3.7,1.9,5.6,2.9C625.3,162.4,654.1,208.2,653.3,260.8z"/>
  <path fill="#C8D32C" d="M456,198.6v182.3c-1.4-0.7-2.9-1.5-4.3-2.2c-1.4-0.8-2.9-1.6-4.3-2.4c-40.6-23.8-68.4-68.3-67.8-119.9c0.2-12.6,2-24.9,5.4-36.5c2.2-7.4,4.9-14.5,8.2-21.3H456z"/>
  <path fill="#F36D38" d="M653.3,260.8c-0.2,13.3-2.4,26.2-6.4,38.4l-64-160.5C625.3,162.4,654.1,208.2,653.3,260.8z"/>
  <path fill="#F9EC1A" d="M517.9,121.5c13.6,0.1,26.7,2.2,39.1,6.1l-159.9,63.7C420.5,149.6,465.3,121.1,517.9,121.5z"/>
  <path fill="#1FBDD8" d="M474.8,388.5l161.3-64.3c-23.5,42-68.7,71.3-119.8,70.6C501.9,394.9,487.9,392.7,474.8,388.5z"/>
  <path fill="#D8E13A" d="M447.4,376.3c-40.6-23.8-68.4-68.3-67.8-119.9c0.2-12.6,2-24.9,5.4-36.5L447.4,376.3z"/>
</svg>
